PathFileType	4	(X/Y/Z)	/Users/itak/Documents/Research/Walk-IL/dataset/trc/00236_00009.trc
DataRate	CameraRate	NumFrames	NumMarkers	Units	OrigDataRate	OrigDataStartFrame	OrigNumFrames
100.000000	100.000000	4	53	mm	100.000000	307	819
Frame#	Time	RPSI			LPSI			L3			STRN			T10			C7			CLAV			RBAK			LBAK			LSHO			LUPA			LAEL			LAOL			LWTS			LWPS			LFRA			LIFD			LHPS			LHTS			RSHO			RUPA			RAEL			RAOL			RWTS			RWPS			RFRA			RIFD			RHTS			RHPS			RBHD			LFHD			RFHD			LBHD			LHIP			RHIP			RASI			LASI			LKNE			LTHI			LANK			LTIP			LTOE			LMT5			LHEE			RKNE			RTHI			RANK			RTIP			RTOE			RMT1			RMT5			RHEE			LMT1			
		X1	Y1	Z1	X2	Y2	Z2	X3	Y3	Z3	X4	Y4	Z4	X5	Y5	Z5	X6	Y6	Z6	X7	Y7	Z7	X8	Y8	Z8	X9	Y9	Z9	X10	Y10	Z10	X11	Y11	Z11	X12	Y12	Z12	X13	Y13	Z13	X14	Y14	Z14	X15	Y15	Z15	X16	Y16	Z16	X17	Y17	Z17	X18	Y18	Z18	X19	Y19	Z19	X20	Y20	Z20	X21	Y21	Z21	X22	Y22	Z22	X23	Y23	Z23	X24	Y24	Z24	X25	Y25	Z25	X26	Y26	Z26	X27	Y27	Z27	X28	Y28	Z28	X29	Y29	Z29	X30	Y30	Z30	X31	Y31	Z31	X32	Y32	Z32	X33	Y33	Z33	X34	Y34	Z34	X35	Y35	Z35	X36	Y36	Z36	X37	Y37	Z37	X38	Y38	Z38	X39	Y39	Z39	X40	Y40	Z40	X41	Y41	Z41	X42	Y42	Z42	X43	Y43	Z43	X44	Y44	Z44	X45	Y45	Z45	X46	Y46	Z46	X47	Y47	Z47	X48	Y48	Z48	X49	Y49	Z49	X50	Y50	Z50	X51	Y51	Z51	X52	Y52	Z52	X53	Y53	Z53	

308	3.07	857.9780883789062	1028.763061523438	-32.84661483764648	743.7442626953125	1027.96728515625	5.758491039276123	785.708740234375	1112.728881835938	-3.219379663467407	699.64697265625	1290.891235351562	-241.3370971679688	791.7234497070312	1240.859985351562	-5.469495296478271	765.9332275390625	1500.565185546875	-70.50292205810547	711.3169555664062	1408.559204101562	-220.7213897705078	859.437744140625	1362.557250976562	-17.44905662536621	669.5428466796875	1465.054809570312	-12.43435859680176	585.3290405273438	1462.579345703125	-76.3143310546875	524.2823486328125	1349.702026367188	-6.712943553924561	497.6875305175781	1142.090698242188	13.01927661895752	567.1824340820312	1129.8916015625	66.63258361816406	530.9751586914062	915.4673461914062	-103.0610733032227	456.26611328125	899.7823486328125	-64.32628631591797	477.2726440429688	1036.26806640625	-9.932405471801758	517.6143798828125	719.9193725585938	-100.7561416625977	454.5304565429688	811.85595703125	-81.76490783691406	501.9173889160156	812.8084716796875	-131.6668090820312	905.4251098632812	1453.064453125	-178.9573059082031	975.2784423828125	1389.508422851562	-179.7245941162109	1032.05224609375	1113.65087890625	-158.9458923339844	956.1126708984375	1103.732177734375	-102.4427719116211	973.8192138671875	889.690185546875	-271.4185180664062	1049.6552734375	882.6402587890625	-235.6716156005859	1042.402465820312	1045.102661132812	-184.6526184082031	974.3502197265625	697.477783203125	-271.5748291015625	987.4842529296875	767.7332153320312	-307.3148498535156	1048.962768554688	773.80712890625	-268.9529418945312	797.7381591796875	1664.105712890625	-161.0790100097656	616.7294311523438	1667.96044921875	-299.6115112304688	705.803466796875	1665.840576171875	-344.9269104003906	659.2616577148438	1664.224853515625	-139.1130065917969	579.4607543945312	958.3177490234375	-42.92788314819336	926.2130737304688	996.654052734375	-162.1455230712891	858.029541015625	1035.5576171875	-239.6671600341797	590.647705078125	1005.430297851562	-153.6315612792969	609.3975830078125	473.2352294921875	-110.5754776000977	587.7592163085938	617.94287109375	-96.58909606933594	711.58740234375	130.8731689453125	221.6645202636719	649.7116088867188	307.5074462890625	47.5003776550293	752.7401123046875	32.08235168457031	42.6754264831543	688.8972778320312	56.84619522094727	121.3188552856445	763.0809936523438	178.2853698730469	258.3337707519531	859.0715942382812	518.7212524414062	-283.9429321289062	909.611083984375	781.0681762695312	-254.1076354980469	887.8572998046875	25.05012512207031	-218.9377288818359	842.9500732421875	395.367919921875	-294.0527954101562	748.4091186523438	36.92620086669922	-385.7064514160156	738.6609497070312	37.13252258300781	-316.7761535644531	860.8911743164062	25.11528968811035	-328.0703125	863.1870727539062	27.19610023498535	-136.5373687744141	797.8225708007812	57.04498291015625	98.67409515380859	
309	3.08	859.0914916992188	1029.611083984375	-40.18866729736328	745.4577026367188	1028.5419921875	0.154944971203804	787.318359375	1113.577514648438	-9.723572731018066	697.6851196289062	1291.322509765625	-246.8405914306641	793.1679077148438	1241.665771484375	-12.39801025390625	766.5751342773438	1501.281494140625	-77.36225128173828	709.7033081054688	1409.014892578125	-226.604736328125	860.8427734375	1363.31689453125	-25.55201148986816	671.0258178710938	1465.913330078125	-17.81448936462402	585.9219360351562	1463.387329101562	-80.51683807373047	525.6633911132812	1350.723999023438	-9.876981735229492	498.9084777832031	1143.171875	10.49795913696289	569.1110229492188	1131.011108398438	63.20985412597656	530.1981811523438	915.8997802734375	-104.9641799926758	456.0153198242188	900.4922485351562	-65.07183837890625	477.9820556640625	1037.291137695312	-11.73007011413574	516.8536987304688	720.3486328125	-101.0993499755859	454.0097351074219	812.4640502929688	-81.851806640625	500.7058410644531	812.9951171875	-132.4599609375	904.3595581054688	1453.53125	-187.8942260742188	974.2136840820312	1389.995239257812	-189.6442108154297	1031.54931640625	1114.223876953125	-169.4346008300781	956.5794067382812	1104.304321289062	-111.7449569702148	971.618896484375	890.223876953125	-280.9622802734375	1047.987670898438	883.12744140625	-246.3347930908203	1041.542602539062	1045.64013671875	-195.2680206298828	972.3162841796875	698.0928955078125	-281.2291564941406	984.7573852539062	768.34375	-317.1659851074219	1046.775512695312	774.3637084960938	-279.6955261230469	797.2647705078125	1664.489013671875	-168.0617523193359	614.70263671875	1668.9033203125	-304.4769897460938	703.2337036132812	1666.653564453125	-350.8479309082031	659.053466796875	1664.864379882812	-144.5276184082031	580.5432739257812	958.8500366210938	-46.01515579223633	925.4312133789062	997.2891845703125	-170.3809204101562	856.1119384765625	1035.944091796875	-247.0363159179688	590.0068969726562	1006.012756347656	-157.053955078125	604.7886962890625	474.1475830078125	-120.0255966186523	584.9472045898438	618.7169189453125	-103.9010238647461	715.380859375	137.897705078125	214.5217895507812	649.3134765625	311.3697509765625	39.01701736450195	743.6115112304688	32.54764938354492	37.29379653930664	685.7335205078125	62.08272171020508	118.2810745239258	769.8942260742188	184.3364715576172	246.9901428222656	858.3826904296875	518.1637573242188	-287.2305908203125	908.14306640625	781.20703125	-260.6544189453125	887.8237915039062	25.09206008911133	-218.9448089599609	842.3370971679688	394.7348022460938	-296.1726379394531	748.356201171875	36.87406921386719	-385.7731018066406	738.5557861328125	37.08347320556641	-316.8069152832031	860.8441162109375	25.12928581237793	-328.0628356933594	863.2051391601562	27.31858062744141	-136.5670623779297	792.5736694335938	58.46173095703125	89.6748046875	
310	3.09	860.177490234375	1030.359008789062	-47.37762451171875	747.1708984375	1029.065795898438	-5.311249256134033	788.9487915039062	1114.424438476562	-16.04531860351562	695.6421508789062	1291.671020507812	-252.1735534667969	794.58740234375	1242.470947265625	-19.20000839233398	767.1346435546875	1501.9736328125	-84.17060089111328	707.9775390625	1409.397583007812	-232.3658905029297	862.2039184570312	1364.084838867188	-33.60461044311523	672.4758911132812	1466.739868164062	-23.10739517211914	586.4923706054688	1464.12890625	-84.59609222412109	527.0319213867188	1351.683227539062	-12.92358875274658	500.0599975585938	1144.177612304688	8.013325691223145	570.9251708984375	1132.025024414062	59.85119247436523	529.4348754882812	916.39892578125	-106.9619216918945	455.8323669433594	901.1818237304688	-65.95691680908203	478.684814453125	1038.260131835938	-13.56169033050537	516.2183227539062	720.888671875	-102.0427474975586	453.6107177734375	813.091552734375	-82.28844451904297	499.5735778808594	813.3701782226562	-133.6021728515625	903.1478271484375	1453.958740234375	-196.8063812255859	972.978515625	1390.421508789062	-199.5801391601562	1030.853271484375	1114.73095703125	-180.0690002441406	956.9189453125	1104.800537109375	-121.1473999023438	969.2299194335938	890.67236328125	-290.5456237792969	1046.1640625	883.5982666015625	-257.1432800292969	1040.481811523438	1046.125	-206.0264587402344	970.3086547851562	698.59375	-290.876708984375	981.8563232421875	768.8543090820312	-327.0245361328125	1044.435546875	774.8588256835938	-290.5229187011719	796.635009765625	1664.840087890625	-175.0326538085938	612.5128784179688	1669.73095703125	-309.2478942871094	700.4696655273438	1667.359741210938	-356.7058715820312	658.7190551757812	1665.44091796875	-149.8955841064453	581.628662109375	959.4578247070312	-48.94704818725586	924.5576782226562	997.8162231445312	-178.4453277587891	854.0988159179688	1036.264038085938	-254.2079467773438	589.2846069335938	1006.6162109375	-160.3027648925781	600.125732421875	475.3373718261719	-129.0252838134766	582.0809936523438	619.6817626953125	-110.8272476196289	719.3820190429688	144.3594360351562	206.5558624267578	649.0428466796875	315.2269287109375	30.52799034118652	733.286376953125	33.36795043945312	31.20539093017578	682.05126953125	67.63165283203125	114.6349029541016	777.0942993164062	189.2553405761719	234.6446075439453	857.6029052734375	517.5922241210938	-290.4743041992188	906.5551147460938	781.2869873046875	-267.0862121582031	887.7904052734375	25.14495658874512	-218.9474029541016	841.6620483398438	394.0965881347656	-298.2568359375	748.317138671875	36.82101440429688	-385.8416442871094	738.4537353515625	37.03676986694336	-316.8410949707031	860.801025390625	25.14731979370117	-328.0554809570312	863.2114868164062	27.45929718017578	-136.5936279296875	786.296630859375	59.60299682617188	79.65831756591797	
311	3.1	861.2105712890625	1031.016845703125	-54.4262580871582	748.8699951171875	1029.55859375	-10.65278816223145	790.5947265625	1115.277709960938	-22.19143486022949	693.527099609375	1291.958862304688	-257.3403930664062	795.9874267578125	1243.283081054688	-25.87821006774902	767.6148071289062	1502.6494140625	-90.91900634765625	706.15087890625	1409.729248046875	-238.0001831054688	863.5186767578125	1364.866455078125	-41.60039901733398	673.8985595703125	1467.545776367188	-28.31121253967285	587.041748046875	1464.824340820312	-88.54993438720703	528.4006958007812	1352.596923828125	-15.85039138793945	501.1767272949219	1145.122924804688	5.575214862823486	572.6715087890625	1132.950073242188	56.54439544677734	528.67041015625	916.9716186523438	-109.0536575317383	455.7182312011719	901.8522338867188	-66.94071960449219	479.4078369140625	1039.18310546875	-15.40609073638916	515.6766357421875	721.5396118164062	-103.5798950195312	453.3196411132812	813.7388916015625	-83.04277801513672	498.4812622070312	813.9360961914062	-135.0784912109375	901.79931640625	1454.365112304688	-205.6712188720703	971.5770874023438	1390.806396484375	-209.5080718994141	1029.950805664062	1115.1875	-190.8305511474609	957.1090698242188	1105.23583984375	-130.6453552246094	966.6502685546875	891.0538940429688	-300.1614685058594	1044.178588867188	884.0760498046875	-268.0877685546875	1039.2080078125	1046.576782226562	-216.9133148193359	968.3152465820312	698.99267578125	-300.5146179199219	978.7836303710938	769.2786254882812	-336.8776550292969	1041.943237304688	775.311767578125	-301.4209289550781	795.8472290039062	1665.180419921875	-181.99560546875	610.1558837890625	1670.433349609375	-313.9260864257812	697.5059814453125	1667.948852539062	-362.4992065429688	658.2578125	1665.969970703125	-155.215576171875	582.7002563476562	960.1600341796875	-51.75664901733398	923.5892944335938	998.2432250976562	-186.3353576660156	852.0098266601562	1036.54296875	-261.1945190429688	588.4901123046875	1007.260070800781	-163.4073486328125	595.4453735351562	476.7934875488281	-137.5670623779297	579.1770629882812	620.8363647460938	-117.3683700561523	723.4884033203125	150.0413360595703	197.7164154052734	648.8517456054688	318.9898376464844	22.0128059387207	722.132080078125	34.54982757568359	24.37472343444824	678.0009155273438	73.26237487792969	110.2256240844727	784.4292602539062	192.9266510009766	221.3429412841797	856.7420043945312	517.009033203125	-293.6629638671875	904.8596801757812	781.308349609375	-273.3936462402344	887.7544555664062	25.21008682250977	-218.9452514648438	840.9354248046875	393.4602966308594	-300.3016357421875	748.283935546875	36.76224136352539	-385.9108276367188	738.352294921875	36.98869705200195	-316.8782348632812	860.76123046875	25.16970252990723	-328.0486450195312	863.2057495117188	27.62066650390625	-136.6157379150391	779.18359375	60.45343780517578	68.70346832275391	
